PathFileType	4	(X/Y/Z)	Patient4_TMGait_0pt2_03_left_14.trc.trc
DataRate	CameraRate	NumFrames	NumMarkers	Units	OrigDataRate	OrigDataStartFrame	OrigNumFrames
45.602605863192	45.602605863192	4	33	mm	45.602605863192	53	       141
Frame#	Time	Sacral			L.Shoulder			Chest			R.Shoulder			Neck			R.ASIS			L.ASIS			R.Thigh.Superior			R.Thigh.Lateral			R.Thigh.Inferior			R.Patella			L.Thigh.Superior			L.Thigh.Lateral			L.Thigh.Inferior			L.Patella			L.Shank.Superior			L.Shank.Lateral			L.Shank.Inferior			R.Shank.Superior			R.Shank.Lateral			R.Shank.Inferior			R.Heel			R.Midfoot.Superior			R.Midfoot.Lateral			R.Toe			L.Heel			L.Midfoot.Lateral			L.Midfoot.Superior			L.Toe			L.Elbow			L.Wrist			R.Elbow			R.Wrist			
		X1	Y1	Z1	X2	Y2	Z2	X3	Y3	Z3	X4	Y4	Z4	X5	Y5	Z5	X6	Y6	Z6	X7	Y7	Z7	X8	Y8	Z8	X9	Y9	Z9	X10	Y10	Z10	X11	Y11	Z11	X12	Y12	Z12	X13	Y13	Z13	X14	Y14	Z14	X15	Y15	Z15	X16	Y16	Z16	X17	Y17	Z17	X18	Y18	Z18	X19	Y19	Z19	X20	Y20	Z20	X21	Y21	Z21	X22	Y22	Z22	X23	Y23	Z23	X24	Y24	Z24	X25	Y25	Z25	X26	Y26	Z26	X27	Y27	Z27	X28	Y28	Z28	X29	Y29	Z29	X30	Y30	Z30	X31	Y31	Z31	X32	Y32	Z32	X33	Y33	Z33	

53	29.980285714286	854.562012693336	995.602698798957	445.505053054315	1024.988796867279	1422.558138872436	247.038017361929	1134.894926510558	1355.588920477424	403.283535181845	1062.616871269135	1433.728381848420	578.923086291262	1014.491363965485	1486.351721246041	404.897991661352	1089.933513122456	935.217617245523	550.123348433553	1062.610678553814	950.896852514414	278.594220058791	1151.255016736591	743.060162987970	522.027393700210	1094.908799500766	630.028661052643	599.617901791312	1173.435623920720	576.988712899345	516.777496189410	1176.871223623952	465.767990557844	542.197808979357	1129.533785271982	747.561577448204	317.556563714493	1048.296229102752	610.780310453321	265.927873095097	1148.366900657578	553.630633186548	335.411597436180	1154.519635483975	480.461748833536	346.579165461875	1119.223779094856	404.534288452413	344.264990939472	1019.642714656428	296.642018759090	295.808622959914	1055.376168783326	185.392757454056	374.177946596307	1096.619978775887	399.955948882414	559.748499067608	977.332038844586	371.329988672119	630.930277444405	955.239135695652	259.933920011507	589.620179744515	747.459832056172	197.013210145074	578.143655963009	920.840488020883	148.949023486172	616.661058804718	812.866748612105	148.313597679242	654.605846430376	991.912620695384	44.427229912367	650.767593297674	914.143665963581	38.508466111285	418.473921086565	988.649786104420	36.106772124498	338.231796137549	1071.980191388625	95.403448212820	366.164063160318	1200.453348860118	44.154602165003	338.275141375066	1041.237765504915	1073.473148294392	119.354269790366	1130.523089682721	828.604807068182	133.587062573757	1132.754656722046	1084.946189627255	689.978941853719	1336.980987107591	935.244829824628	653.911063037263	
54	30.002214285714	853.765459623042	990.684147688835	441.365307162542	1023.775076886664	1420.648714101015	246.849512570556	1132.072176485171	1353.305007047603	403.983947358929	1057.056054077923	1428.739229663924	579.798862733377	1011.875728132951	1483.351730130879	405.234049086440	1089.387509165657	932.854998608573	547.468558634027	1063.711722954597	948.596417201256	275.728639094130	1156.830896958570	743.964689179271	518.367055306299	1104.998462441900	629.727728864036	596.682122002946	1184.790937133527	578.826644028169	513.245399782632	1191.051476760228	466.745039357853	539.397496909591	1132.842231654871	745.699988146238	315.761986781578	1053.352342414124	607.730420654083	264.508932189326	1153.334054496023	551.610481232646	335.261867978044	1159.972183393252	477.920965116966	346.805780606895	1122.924495143279	401.589253748247	344.685379669894	1021.573484302830	295.506529460693	295.872774411427	1053.839272716163	183.811098979284	374.698558744522	1109.764692455584	400.485974986268	557.547287860943	988.897969484229	374.477129236456	627.927168420851	965.343012760383	262.776662990273	588.061193780557	756.257167630983	203.358801313569	575.544481598462	928.804734691285	152.630547402095	616.193432710037	820.130333798386	154.259821111310	653.190470729635	997.862472679252	46.277982847746	652.299947881398	909.828906118473	38.606995111796	418.428395336061	984.374600158226	36.161894273825	338.241478698359	1067.834050790671	95.191772475185	366.462285681721	1196.247523030201	43.698707105557	338.300593760772	1053.013156947404	1072.333089518371	117.723125746810	1154.184366182077	832.412414548652	132.128516679880	1111.963146963805	1075.896088971390	689.871004951430	1298.826455339343	902.238315086305	664.430063055921	
55	30.024142857143	853.067667117702	986.265116053609	437.374340155021	1023.035470761119	1419.031189382141	246.935728816542	1129.555731464358	1351.185725029869	405.007476518003	1051.696288196181	1424.027122267529	580.832323876526	1009.604349226310	1480.641723544941	405.772718555337	1088.686404675012	930.764018444752	545.302810997047	1065.019326668094	946.554125935557	273.297998801779	1161.442844691118	744.974314020017	515.537410611697	1113.601712463158	629.859487128547	594.447081894769	1194.526071506591	580.971418149360	510.517885512554	1203.665768106851	468.501775485374	537.278479874883	1135.772601370744	743.893719819895	314.459754076216	1057.744551913858	604.952026753987	263.357996196101	1157.395429539312	549.648023411970	335.455287767109	1164.367377633348	475.537635337675	347.381809374958	1125.753900394923	398.896305177738	345.314220467579	1022.890399294724	294.448376184579	296.072039983904	1052.008761160045	182.371291077195	375.263310316802	1122.183929033454	401.366065099900	555.931871363390	1000.283977330479	376.246418657304	625.324329051540	976.925821069939	264.126638293625	586.711491614918	767.792133350852	205.137222771728	572.758993715950	939.830126531286	154.516558159688	615.804674806715	830.653592863520	156.658173058704	651.652135612934	1008.291661274999	47.768791385200	653.891879747111	905.500395008627	38.692404624904	418.381524795474	980.092747877494	36.211373973729	338.248395957060	1063.671157689963	94.992674011357	366.755754797689	1192.028102236728	43.278035456307	338.329547276343	1063.829697729623	1072.029959663006	116.245458892740	1177.758653192451	838.099637648196	131.559298311576	1090.571991024343	1068.134700398947	689.838187275760	1257.478530282417	873.234591105014	674.394636482590	
56	30.046071428571	852.464957821744	982.648732763252	433.540665801958	1022.913417679812	1417.908257919080	247.274059924226	1127.423571285325	1349.451745154329	406.372523802429	1046.596236033063	1419.931268164669	581.971859148393	1007.761493406868	1478.462226130353	406.461960908869	1087.768325671895	929.148694388082	543.697607624290	1066.528407811042	944.983509374879	271.375338788804	1165.002082855443	746.233908917336	513.579105267449	1120.539179760479	630.509795054437	592.900533615238	1202.492305980515	583.475011042018	508.629669040474	1214.530173371577	471.101777057605	535.884391348674	1138.114042550036	742.252688556204	313.640293364611	1061.115185818231	602.644881432126	262.447633150277	1160.164193224988	547.851409679578	335.895332918390	1167.268097096397	473.447276608171	348.192097783237	1127.345386960117	396.614931505883	346.045812075031	1023.301619455540	293.532821275718	296.335737012649	1049.745510433868	181.156841807086	375.809653718258	1133.746119188630	402.666661527441	554.911032971021	1011.447300122356	376.572749952998	623.181044276349	990.048676889287	263.946449978173	585.591243375640	782.240702249210	202.157767871143	569.895520079704	954.112036893237	154.522339728899	615.467070507111	844.677090841674	155.310411656523	650.027615205022	1023.481416257376	48.866486101050	655.399274616803	901.150091898811	38.760646149197	418.331645286487	975.793178131721	36.250973961022	338.248079039233	1059.473515427931	94.817689407524	367.017799319767	1187.782205402066	42.915447508999	338.359036173400	1073.821737826506	1072.692097735674	114.853617991403	1201.095369890210	845.821027230531	131.848806016191	1068.645281929329	1062.104680291366	689.895045892072	1213.796394208185	849.038619783035	683.570691900924	
